<svg width="805" height="294" viewBox="0 0 805 294" fill="none" xmlns="http://www.w3.org/2000/svg">
<path d="M388.013 164.184H391.757L419.213 231H415.373L406.349 208.92H373.421L364.301 231H360.557L388.013 164.184ZM374.861 205.464H404.909L389.837 168.792L374.861 205.464ZM482.019 217.272C480.291 221.688 477.155 225.336 472.611 228.216C468.067 231.032 463.203 232.44 458.019 232.44C453.027 232.44 448.419 231.192 444.195 228.696C439.971 226.2 436.611 222.776 434.115 218.424C431.683 214.008 430.467 209.176 430.467 203.928V190.488C430.467 185.368 431.683 180.696 434.115 176.472C436.611 172.248 439.939 168.92 444.099 166.488C448.323 163.992 452.963 162.744 458.019 162.744C462.179 162.744 465.987 163.448 469.443 164.856C472.899 166.2 475.843 168.184 478.275 170.808C480.259 172.984 481.859 175.416 483.075 178.104C484.355 180.792 484.995 183.512 484.995 186.264H481.539C481.475 183.896 480.867 181.56 479.715 179.256C478.627 176.952 477.219 174.872 475.491 173.016C471.203 168.536 465.379 166.296 458.019 166.296C453.603 166.296 449.539 167.384 445.827 169.56C442.179 171.672 439.299 174.584 437.187 178.296C435.075 181.944 434.019 186.008 434.019 190.488V203.928C434.019 208.6 435.075 212.856 437.187 216.696C439.363 220.472 442.275 223.448 445.923 225.624C449.635 227.8 453.667 228.888 458.019 228.888C462.435 228.888 466.467 227.832 470.115 225.72C473.827 223.544 476.739 220.632 478.851 216.984C480.963 213.272 482.019 209.24 482.019 204.888V201.528H458.019V197.976H485.571V231H482.019V217.272ZM550.682 217.272C548.954 221.688 545.818 225.336 541.274 228.216C536.73 231.032 531.866 232.44 526.682 232.44C521.69 232.44 517.082 231.192 512.858 228.696C508.634 226.2 505.274 222.776 502.778 218.424C500.346 214.008 499.13 209.176 499.13 203.928V190.488C499.13 185.368 500.346 180.696 502.778 176.472C505.274 172.248 508.602 168.92 512.762 166.488C516.986 163.992 521.626 162.744 526.682 162.744C530.842 162.744 534.65 163.448 538.106 164.856C541.562 166.2 544.506 168.184 546.938 170.808C548.922 172.984 550.522 175.416 551.738 178.104C553.018 180.792 553.658 183.512 553.658 186.264H550.202C550.138 183.896 549.53 181.56 548.378 179.256C547.29 176.952 545.882 174.872 544.154 173.016C539.866 168.536 534.042 166.296 526.682 166.296C522.266 166.296 518.202 167.384 514.49 169.56C510.842 171.672 507.962 174.584 505.85 178.296C503.738 181.944 502.682 186.008 502.682 190.488V203.928C502.682 208.6 503.738 212.856 505.85 216.696C508.026 220.472 510.938 223.448 514.586 225.624C518.298 227.8 522.33 228.888 526.682 228.888C531.098 228.888 535.13 227.832 538.778 225.72C542.49 223.544 545.402 220.632 547.514 216.984C549.626 213.272 550.682 209.24 550.682 204.888V201.528H526.682V197.976H554.234V231H550.682V217.272ZM641.447 164.184H688.487V167.736H644.999V194.808H682.823V198.36H644.999V227.448H688.487V231H641.447V164.184ZM710.205 205.464C710.205 209.688 711.261 213.592 713.373 217.176C715.549 220.76 718.429 223.608 722.013 225.72C725.661 227.832 729.597 228.888 733.821 228.888C738.173 228.888 742.109 228.024 745.629 226.296C749.149 224.568 751.901 222.168 753.885 219.096C755.933 216.024 756.989 212.568 757.053 208.728H760.509C760.509 213.144 759.325 217.176 756.957 220.824C754.653 224.408 751.453 227.256 747.357 229.368C743.325 231.416 738.813 232.44 733.821 232.44C728.957 232.44 724.445 231.224 720.285 228.792C716.125 226.36 712.829 223.096 710.397 219C707.965 214.84 706.749 210.328 706.749 205.464V189.72C706.749 184.856 707.933 180.376 710.301 176.28C712.733 172.12 715.997 168.824 720.093 166.392C724.253 163.96 728.765 162.744 733.629 162.744C738.557 162.744 743.037 163.8 747.069 165.912C751.165 167.96 754.397 170.808 756.765 174.456C759.133 178.04 760.317 182.04 760.317 186.456H756.861C756.797 182.616 755.741 179.16 753.693 176.088C751.645 173.016 748.861 170.616 745.341 168.888C741.885 167.16 737.981 166.296 733.629 166.296C729.405 166.296 725.501 167.352 721.917 169.464C718.333 171.576 715.485 174.424 713.373 178.008C711.261 181.592 710.205 185.496 710.205 189.72V205.464Z" fill="black"/>
<path d="M351.418 228.357H258.268V118.398L305.273 190.89L351.418 118.398V228.357Z" fill="#F4F0AD"/>
<path d="M258.869 118.898V228.398H351.766V118.398L305.317 190.898L258.869 118.898Z" stroke="black" stroke-width="4" stroke-linejoin="bevel"/>
<path d="M606.166 168.481L606.744 245.813C598.214 254.476 592.777 248.672 591.124 244.686L589.705 165.661L606.166 168.481Z" fill="#151515"/>
<path d="M606.741 245.977L608.284 247.25L608.754 246.68L608.741 245.941L606.741 245.977ZM604.9 144.966L606.9 144.929L606.897 144.746L606.86 144.567L604.9 144.966ZM588.572 146.45L586.572 146.456L586.572 146.478L586.572 146.501L588.572 146.45ZM591.134 246.246L589.135 246.297L589.153 247.004L589.611 247.542L591.134 246.246ZM598.768 251.105L598.793 249.105L598.793 249.105L598.768 251.105ZM613.613 128.078C612.907 128.928 613.023 130.189 613.872 130.895C614.722 131.6 615.983 131.484 616.689 130.635L613.613 128.078ZM624.738 120.95C625.444 120.1 625.327 118.839 624.478 118.133C623.628 117.427 622.367 117.544 621.661 118.393L624.738 120.95ZM592.528 124.234C592.568 125.338 593.496 126.2 594.6 126.16C595.704 126.12 596.566 125.192 596.525 124.088L592.528 124.234ZM596.163 114.177C596.122 113.073 595.195 112.211 594.091 112.251C592.987 112.292 592.125 113.219 592.166 114.323L596.163 114.177ZM579.333 139.354C580.403 139.629 581.493 138.986 581.769 137.916C582.045 136.847 581.401 135.756 580.332 135.48L579.333 139.354ZM569.072 132.577C568.002 132.302 566.911 132.945 566.636 134.015C566.36 135.084 567.003 136.175 568.073 136.451L569.072 132.577ZM605.307 167.248L607.306 167.211L605.307 167.248ZM589.084 166.409L587.085 166.46L587.085 166.46L589.084 166.409ZM591.134 246.246C589.611 247.542 589.611 247.543 589.612 247.543C589.612 247.543 589.612 247.543 589.612 247.544C589.613 247.544 589.613 247.545 589.614 247.546C589.615 247.547 589.617 247.549 589.619 247.551C589.622 247.555 589.626 247.56 589.632 247.566C589.643 247.579 589.658 247.596 589.676 247.617C589.714 247.66 589.766 247.719 589.833 247.793C589.966 247.941 590.157 248.147 590.396 248.393C590.871 248.882 591.549 249.538 592.353 250.202C593.153 250.861 594.115 251.558 595.162 252.102C596.194 252.638 597.43 253.088 598.743 253.105L598.793 249.105C598.339 249.099 597.737 248.931 597.006 248.552C596.29 248.18 595.566 247.666 594.898 247.116C594.236 246.57 593.668 246.02 593.264 245.604C593.063 245.398 592.906 245.228 592.801 245.112C592.749 245.054 592.71 245.01 592.685 244.982C592.673 244.968 592.665 244.958 592.66 244.953C592.657 244.95 592.656 244.948 592.655 244.947C592.655 244.947 592.655 244.947 592.655 244.947C592.655 244.947 592.656 244.948 592.656 244.948C592.656 244.948 592.656 244.948 592.656 244.948C592.656 244.949 592.657 244.949 591.134 246.246ZM598.743 253.105C600.121 253.122 601.417 252.659 602.497 252.098C603.592 251.529 604.598 250.789 605.43 250.089C606.269 249.383 606.974 248.682 607.469 248.159C607.717 247.897 607.916 247.676 608.054 247.518C608.123 247.439 608.178 247.376 608.217 247.33C608.236 247.307 608.251 247.289 608.262 247.276C608.268 247.269 608.273 247.263 608.276 247.259C608.278 247.257 608.279 247.255 608.281 247.254C608.281 247.253 608.282 247.252 608.282 247.252C608.283 247.251 608.283 247.251 608.283 247.251C608.283 247.251 608.284 247.25 606.741 245.977C605.199 244.704 605.199 244.703 605.199 244.703C605.2 244.703 605.2 244.703 605.2 244.703C605.2 244.702 605.2 244.702 605.2 244.702C605.201 244.702 605.201 244.702 605.2 244.702C605.2 244.703 605.198 244.705 605.195 244.708C605.19 244.714 605.181 244.725 605.168 244.74C605.143 244.77 605.102 244.818 605.047 244.88C604.938 245.005 604.773 245.188 604.563 245.41C604.141 245.856 603.547 246.446 602.855 247.028C602.157 247.615 601.4 248.16 600.653 248.549C599.891 248.945 599.266 249.111 598.793 249.105L598.743 253.105ZM616.689 130.635L624.738 120.95L621.661 118.393L613.613 128.078L616.689 130.635ZM596.525 124.088L596.163 114.177L592.166 114.323L592.528 124.234L596.525 124.088ZM580.332 135.48L569.072 132.577L568.073 136.451L579.333 139.354L580.332 135.48ZM606.86 144.567C605.423 137.498 600.096 135.431 596.687 135.741L597.049 139.725C598.615 139.582 601.946 140.472 602.941 145.364L606.86 144.567ZM596.687 135.741C594.929 135.901 592.477 136.997 590.488 138.681C588.456 140.402 586.561 143.036 586.572 146.456L590.572 146.443C590.566 144.614 591.574 143.003 593.073 141.734C594.614 140.429 596.318 139.791 597.049 139.725L596.687 135.741ZM608.741 245.941L607.306 167.211L603.307 167.284L604.742 246.013L608.741 245.941ZM607.306 167.211L606.9 144.929L602.901 145.002L603.307 167.284L607.306 167.211ZM586.572 146.501L587.085 166.46L591.084 166.357L590.571 146.398L586.572 146.501ZM587.085 166.46L589.135 246.297L593.133 246.194L591.084 166.357L587.085 166.46ZM605.41 165.25L589.187 164.411L588.981 168.406L605.203 169.245L605.41 165.25Z" fill="black"/>
<circle cx="118.5" cy="116.5" r="59.5" fill="#F4ADD5"/>
<path d="M90.2073 228.367H78V254.332H163.451V228.367H150.43M90.2073 228.367L78 168.568H85.3244M90.2073 228.367H110.146M150.43 228.367L163.451 168.568H154.499M150.43 228.367H129.271M154.499 168.568C163.451 136.308 152.709 131.588 129.271 109.557C124.062 103.891 121.132 93.0332 120.319 88.3123C114.893 91.4596 100.624 102.16 103.228 116.638C92.92 124.506 74.9075 145.908 85.3244 168.568M154.499 168.568H135.781M85.3244 168.568H103.228M110.146 228.367L103.228 168.568M110.146 228.367H129.271M103.228 168.568H135.781M129.271 228.367L135.781 168.568" stroke="black" stroke-width="4"/>
<path d="M24.7799 86.4303C24.7799 86.4303 29.9244 4.11894 119.095 4.11894C216.84 4.11894 216.84 86.4303 216.84 86.4303L216.84 254.482L24.7799 254.482L24.7799 86.4303ZM3.34467 289.636L235.703 289.636L235.703 254.482L3.34467 254.482L3.34467 289.636Z" stroke="black" stroke-width="4"/>
<path d="M172.254 43.5598C191.117 57.2783 200.549 77.8562 196.262 117.297" stroke="black" stroke-width="4" stroke-linecap="round"/>
<path d="M142.245 30.6987L155.106 34.1283" stroke="black" stroke-width="4" stroke-linecap="round"/>
</svg>
